<svg xmlns="http://www.w3.org/2000/svg" xmlns:xlink="http://www.w3.org/1999/xlink" width="2000" zoomAndPan="magnify" viewBox="0 0 1500 1499.999933" height="2000" preserveAspectRatio="xMidYMid meet" version="1.0"><defs><clipPath id="d0ecc17cdf"><path d="M 552.746094 595.324219 L 861.746094 595.324219 L 861.746094 904.324219 L 552.746094 904.324219 Z M 552.746094 595.324219 " clip-rule="nonzero"/></clipPath></defs><g clip-path="url(#d0ecc17cdf)"><path fill="#ffffff" d="M 707.410156 904.675781 C 681.164062 904.675781 659.816406 883.328125 659.816406 857.082031 L 659.816406 821.390625 C 659.816406 795.144531 681.164062 773.796875 707.410156 773.796875 L 731.195312 773.796875 L 731.195312 726.203125 L 600.34375 726.203125 C 587.21875 726.203125 576.558594 736.863281 576.558594 749.984375 C 576.558594 763.109375 587.21875 773.769531 600.34375 773.769531 L 636.03125 773.769531 C 642.605469 773.769531 647.9375 779.101562 647.9375 785.675781 C 647.9375 792.25 642.605469 797.582031 636.03125 797.582031 L 600.34375 797.582031 C 574.097656 797.582031 552.746094 776.230469 552.746094 749.984375 C 552.746094 723.738281 574.097656 702.390625 600.34375 702.390625 L 731.21875 702.390625 L 731.21875 642.917969 C 731.21875 629.796875 720.558594 619.132812 707.4375 619.132812 C 694.3125 619.132812 683.652344 629.796875 683.652344 642.917969 L 683.652344 678.609375 C 683.652344 685.183594 678.324219 690.511719 671.746094 690.511719 C 665.171875 690.511719 659.84375 685.183594 659.84375 678.609375 L 659.84375 642.917969 C 659.84375 616.671875 681.191406 595.324219 707.410156 595.324219 C 733.65625 595.324219 755.003906 616.671875 755.003906 642.917969 L 755.003906 702.417969 L 814.503906 702.417969 C 840.75 702.417969 862.097656 723.765625 862.097656 750.011719 C 862.097656 776.257812 840.75 797.609375 814.503906 797.609375 L 755.003906 797.609375 L 755.003906 857.109375 C 755.003906 883.328125 733.65625 904.675781 707.410156 904.675781 Z M 707.410156 797.582031 C 694.285156 797.582031 683.625 808.242188 683.625 821.363281 L 683.625 857.054688 C 683.625 870.175781 694.285156 880.835938 707.410156 880.835938 C 720.53125 880.835938 731.195312 870.175781 731.195312 857.054688 L 731.195312 797.582031 Z M 755.003906 773.796875 L 814.503906 773.796875 C 827.628906 773.796875 838.289062 763.136719 838.289062 750.011719 C 838.289062 736.890625 827.628906 726.230469 814.503906 726.230469 L 755.003906 726.230469 Z M 755.003906 773.796875 " fill-opacity="1" fill-rule="nonzero"/></g></svg>