<svg xmlns="http://www.w3.org/2000/svg" xmlns:xlink="http://www.w3.org/1999/xlink" viewBox="0 0 1500 1500" preserveAspectRatio="xMidYMid meet" style="width:100%;height:100%;"><defs><g/><clipPath id="b66cd5374c"><rect x="0" width="458" y="0" height="415"/></clipPath><clipPath id="a58113f133"><rect x="0" width="148" y="0" height="53"/></clipPath><clipPath id="12aa4dae5a"><path d="M 2 0.0390625 L 212 0.0390625 L 212 299 L 2 299 Z M 2 0.0390625 " clip-rule="nonzero"/></clipPath><clipPath id="f70069872e"><rect x="0" width="295" y="0" height="323"/></clipPath></defs><g transform="matrix(1, 0, 0, 1, 714, 500)"><g clip-path="url(#b66cd5374c)"><g fill="#1b1b1b" fill-opacity="1"><g transform="translate(0.983585, 336.474214)"><g><path d="M 65.390625 0.84375 C 50.472656 0.84375 39.476562 -1.414062 32.40625 -5.9375 C 25.332031 -10.46875 20.945312 -15.941406 19.25 -22.359375 C 17.550781 -28.773438 16.703125 -36.984375 16.703125 -46.984375 L 16.984375 -212.28125 L 60.859375 -212.28125 L 60.859375 -56.046875 C 60.859375 -49.441406 61.1875 -44.488281 61.84375 -41.1875 C 62.507812 -37.882812 64.394531 -35.285156 67.5 -33.390625 C 70.613281 -31.503906 75.566406 -30.5625 82.359375 -30.5625 C 85.953125 -30.5625 88.40625 -30.753906 89.71875 -31.140625 L 89.71875 -0.5625 C 81.226562 0.375 73.117188 0.84375 65.390625 0.84375 Z M 65.390625 0.84375 "/></g></g></g><g fill="#1b1b1b" fill-opacity="1"><g transform="translate(77.691154, 336.474214)"><g><path d="M 67.078125 2.546875 C 48.585938 2.546875 34.296875 -4.476562 24.203125 -18.53125 C 14.109375 -32.59375 9.0625 -51.414062 9.0625 -75 C 9.0625 -98.78125 14.25 -117.695312 24.625 -131.75 C 35 -145.8125 49.335938 -152.84375 67.640625 -152.84375 C 80.285156 -152.84375 90.003906 -150.054688 96.796875 -144.484375 C 103.585938 -138.921875 108.304688 -133.3125 110.953125 -127.65625 L 113.21875 -127.65625 L 113.21875 -149.734375 L 157.65625 -149.734375 L 157.65625 0 L 113.21875 0 L 113.21875 -24.0625 L 110.953125 -24.0625 C 108.117188 -18.019531 103.257812 -12.070312 96.375 -6.21875 C 89.488281 -0.375 79.722656 2.546875 67.078125 2.546875 Z M 83.78125 -32.828125 C 93.78125 -32.828125 101.234375 -37.023438 106.140625 -45.421875 C 111.046875 -53.828125 113.5 -63.785156 113.5 -75.296875 C 113.5 -86.609375 111.046875 -96.460938 106.140625 -104.859375 C 101.234375 -113.265625 93.78125 -117.46875 83.78125 -117.46875 C 73.40625 -117.46875 65.8125 -113.363281 61 -105.15625 C 56.1875 -96.945312 53.78125 -87.085938 53.78125 -75.578125 C 53.78125 -63.878906 56.1875 -53.828125 61 -45.421875 C 65.8125 -37.023438 73.40625 -32.828125 83.78125 -32.828125 Z M 83.78125 -32.828125 "/></g></g></g><g fill="#1b1b1b" fill-opacity="1"><g transform="translate(229.407985, 336.474214)"><g><path d="M 105.015625 2.546875 C 92.554688 2.546875 82.929688 -0.28125 76.140625 -5.9375 C 69.347656 -11.601562 64.347656 -17.644531 61.140625 -24.0625 L 58.875 -24.0625 L 58.875 0 L 14.4375 0 L 14.4375 -212.5625 L 58.875 -212.5625 L 58.875 -127.65625 L 61.140625 -127.65625 C 63.773438 -133.3125 68.535156 -138.921875 75.421875 -144.484375 C 82.316406 -150.054688 92.085938 -152.84375 104.734375 -152.84375 C 123.410156 -152.84375 137.796875 -145.859375 147.890625 -131.890625 C 157.984375 -117.929688 163.03125 -98.96875 163.03125 -75 C 163.03125 -51.414062 157.984375 -32.59375 147.890625 -18.53125 C 137.796875 -4.476562 123.503906 2.546875 105.015625 2.546875 Z M 88.59375 -32.265625 C 98.78125 -32.265625 106.28125 -36.507812 111.09375 -45 C 115.90625 -53.488281 118.3125 -63.488281 118.3125 -75 C 118.3125 -86.507812 115.90625 -96.367188 111.09375 -104.578125 C 106.28125 -112.785156 98.78125 -116.890625 88.59375 -116.890625 C 78.40625 -116.890625 70.90625 -112.738281 66.09375 -104.4375 C 61.28125 -96.132812 58.875 -86.320312 58.875 -75 C 58.875 -63.488281 61.328125 -53.488281 66.234375 -45 C 71.140625 -36.507812 78.59375 -32.265625 88.59375 -32.265625 Z M 88.59375 -32.265625 "/></g></g></g><g fill="#1b1b1b" fill-opacity="1"><g transform="translate(379.992627, 336.474214)"><g><path d="M 47.546875 2.546875 C 40.566406 2.546875 34.8125 0.1875 30.28125 -4.53125 C 25.757812 -9.25 23.5 -15.003906 23.5 -21.796875 C 23.5 -28.585938 25.757812 -34.296875 30.28125 -38.921875 C 34.8125 -43.546875 40.566406 -45.859375 47.546875 -45.859375 C 54.535156 -45.859375 60.335938 -43.546875 64.953125 -38.921875 C 69.578125 -34.296875 71.890625 -28.585938 71.890625 -21.796875 C 71.890625 -15.003906 69.53125 -9.25 64.8125 -4.53125 C 60.09375 0.1875 54.335938 2.546875 47.546875 2.546875 Z M 47.546875 2.546875 "/></g></g></g></g></g><g transform="matrix(1, 0, 0, 1, 688, 851)"><g clip-path="url(#a58113f133)"><g fill="#1b1b1b" fill-opacity="1"><g transform="translate(0.668138, 39.920099)"><g><path d="M 10.375 -8.8125 L 7.453125 -8.8125 L 7.453125 0 L 1.875 0 L 1.875 -25.203125 L 11.453125 -25.203125 C 13.441406 -25.203125 15.125 -24.816406 16.5 -24.046875 C 17.882812 -23.273438 18.910156 -22.257812 19.578125 -21 C 20.253906 -19.738281 20.59375 -18.378906 20.59375 -16.921875 C 20.59375 -15.285156 20.179688 -13.8125 19.359375 -12.5 C 18.546875 -11.195312 17.347656 -10.222656 15.765625 -9.578125 L 21.171875 0 L 15.296875 0 Z M 7.453125 -13.390625 L 10.546875 -13.390625 C 11.835938 -13.390625 12.925781 -13.660156 13.8125 -14.203125 C 14.707031 -14.742188 15.15625 -15.648438 15.15625 -16.921875 C 15.15625 -18.140625 14.71875 -19.003906 13.84375 -19.515625 C 12.96875 -20.035156 11.867188 -20.296875 10.546875 -20.296875 L 7.453125 -20.296875 Z M 7.453125 -13.390625 "/></g></g></g><g fill="#1b1b1b" fill-opacity="1"><g transform="translate(21.008315, 39.920099)"><g><path d="M 7.53125 -20.296875 L 7.53125 -14.9375 L 17.09375 -14.9375 L 17.09375 -10.578125 L 7.53125 -10.578125 L 7.53125 -4.890625 L 18.90625 -4.890625 L 18.90625 0 L 1.875 0 L 1.875 -25.203125 L 18.90625 -25.203125 L 18.90625 -20.296875 Z M 7.53125 -20.296875 "/></g></g></g><g fill="#1b1b1b" fill-opacity="1"><g transform="translate(39.404508, 39.920099)"><g><path d="M 0.328125 -25.203125 L 5.9375 -25.203125 L 11.875 -6.015625 L 12.09375 -6.015625 L 18 -25.203125 L 23.609375 -25.203125 L 15.546875 0.03125 L 8.390625 0.03125 Z M 0.328125 -25.203125 "/></g></g></g><g fill="#1b1b1b" fill-opacity="1"><g transform="translate(62.156734, 39.920099)"><g><path d="M 2.125 -25.203125 L 7.78125 -25.203125 L 7.78125 0 L 2.125 0 Z M 2.125 -25.203125 "/></g></g></g><g fill="#1b1b1b" fill-opacity="1"><g transform="translate(70.436854, 39.920099)"><g><path d="M 7.53125 -20.296875 L 7.53125 -14.9375 L 17.09375 -14.9375 L 17.09375 -10.578125 L 7.53125 -10.578125 L 7.53125 -4.890625 L 18.90625 -4.890625 L 18.90625 0 L 1.875 0 L 1.875 -25.203125 L 18.90625 -25.203125 L 18.90625 -20.296875 Z M 7.53125 -20.296875 "/></g></g></g><g fill="#1b1b1b" fill-opacity="1"><g transform="translate(88.833047, 39.920099)"><g><path d="M 0.359375 -25.203125 L 5.96875 -25.203125 L 9.9375 -7.421875 L 10.15625 -7.421875 L 15.484375 -25.203125 L 20.375 -25.203125 L 25.703125 -7.421875 L 25.921875 -7.421875 L 29.921875 -25.203125 L 35.53125 -25.203125 L 29.125 0.03125 L 22.5 0.03125 L 18.03125 -15.078125 L 17.8125 -15.078125 L 13.359375 0.03125 L 6.734375 0.03125 Z M 0.359375 -25.203125 "/></g></g></g><g fill="#1b1b1b" fill-opacity="1"><g transform="translate(122.745321, 39.920099)"><g><path d="M 11.203125 0.328125 C 9.179688 0.328125 7.429688 -0.0664062 5.953125 -0.859375 C 4.484375 -1.648438 3.367188 -2.6875 2.609375 -3.96875 C 1.847656 -5.257812 1.46875 -6.597656 1.46875 -7.984375 L 1.46875 -8.28125 L 7.625 -8.28125 L 7.625 -8.03125 C 7.625 -7.164062 7.9375 -6.375 8.5625 -5.65625 C 9.1875 -4.9375 10.097656 -4.578125 11.296875 -4.578125 C 12.335938 -4.578125 13.164062 -4.835938 13.78125 -5.359375 C 14.40625 -5.890625 14.71875 -6.585938 14.71875 -7.453125 C 14.71875 -8.222656 14.441406 -8.84375 13.890625 -9.3125 C 13.335938 -9.78125 12.664062 -10.097656 11.875 -10.265625 L 9 -10.84375 C 7.320312 -11.21875 5.75 -11.929688 4.28125 -12.984375 C 2.820312 -14.046875 2.09375 -15.78125 2.09375 -18.1875 C 2.09375 -19.738281 2.46875 -21.078125 3.21875 -22.203125 C 3.976562 -23.335938 5.03125 -24.203125 6.375 -24.796875 C 7.71875 -25.398438 9.238281 -25.703125 10.9375 -25.703125 C 12.882812 -25.703125 14.566406 -25.328125 15.984375 -24.578125 C 17.398438 -23.835938 18.46875 -22.875 19.1875 -21.6875 C 19.90625 -20.5 20.265625 -19.257812 20.265625 -17.96875 L 20.265625 -17.78125 L 14.109375 -17.78125 L 14.109375 -17.890625 C 14.109375 -18.660156 13.835938 -19.375 13.296875 -20.03125 C 12.753906 -20.695312 11.898438 -21.03125 10.734375 -21.03125 C 9.816406 -21.03125 9.085938 -20.773438 8.546875 -20.265625 C 8.003906 -19.765625 7.734375 -19.101562 7.734375 -18.28125 C 7.734375 -17.488281 8.035156 -16.863281 8.640625 -16.40625 C 9.242188 -15.957031 9.960938 -15.648438 10.796875 -15.484375 L 13.71875 -14.828125 C 15.613281 -14.421875 17.234375 -13.65625 18.578125 -12.53125 C 19.921875 -11.40625 20.59375 -9.757812 20.59375 -7.59375 C 20.59375 -6.007812 20.179688 -4.617188 19.359375 -3.421875 C 18.546875 -2.222656 17.425781 -1.296875 16 -0.640625 C 14.570312 0.00390625 12.972656 0.328125 11.203125 0.328125 Z M 11.203125 0.328125 "/></g></g></g></g></g><g transform="matrix(1, 0, 0, 1, 421, 587)"><g clip-path="url(#f70069872e)"><g clip-path="url(#12aa4dae5a)"><g fill="#1b1b1b" fill-opacity="1"><g transform="translate(51.36258, 230.225248)"><g><path d="M 63.515625 -165.1875 C 72.703125 -184.4375 83.125 -200.046875 94.78125 -212.015625 C 106.4375 -223.992188 119.429688 -229.984375 133.765625 -229.984375 C 140.816406 -229.984375 146.960938 -228.378906 152.203125 -225.171875 C 157.441406 -221.960938 160.0625 -217.472656 160.0625 -211.703125 C 160.0625 -207.640625 158.722656 -204.21875 156.046875 -201.4375 C 153.378906 -198.65625 150.226562 -197.265625 146.59375 -197.265625 C 143.8125 -197.265625 141.507812 -198.226562 139.6875 -200.15625 C 137.875 -202.082031 136.96875 -204.4375 136.96875 -207.21875 C 136.96875 -208.707031 137.769531 -210.679688 139.375 -213.140625 C 140.976562 -215.609375 141.78125 -217.484375 141.78125 -218.765625 C 141.78125 -220.253906 141.03125 -221.535156 139.53125 -222.609375 C 138.03125 -223.679688 136.210938 -224.21875 134.078125 -224.21875 C 125.097656 -224.21875 117.398438 -220.582031 110.984375 -213.3125 C 104.566406 -206.039062 99.164062 -196.84375 94.78125 -185.71875 C 90.394531 -174.601562 85.851562 -160.382812 81.15625 -143.0625 L 103.921875 -143.0625 L 101.046875 -133.125 L 78.265625 -133.125 L 61.90625 -68.640625 C 56.34375 -46.617188 50.140625 -26.035156 43.296875 -6.890625 C 36.453125 12.242188 27.097656 29.613281 15.234375 45.21875 C 3.367188 60.832031 -10.582031 68.640625 -26.625 68.640625 C -33.25 68.640625 -38.644531 67.195312 -42.8125 64.3125 C -46.988281 61.425781 -49.078125 57.628906 -49.078125 52.921875 C -49.078125 49.503906 -47.6875 46.40625 -44.90625 43.625 C -42.125 40.84375 -38.8125 39.453125 -34.96875 39.453125 C -31.757812 39.453125 -29.242188 40.359375 -27.421875 42.171875 C -25.609375 43.992188 -24.703125 45.972656 -24.703125 48.109375 C -24.703125 49.828125 -25.820312 51.859375 -28.0625 54.203125 C -30.3125 56.554688 -31.4375 58.160156 -31.4375 59.015625 C -31.4375 59.867188 -30.953125 60.5625 -29.984375 61.09375 C -29.023438 61.632812 -27.90625 61.90625 -26.625 61.90625 C -18.5 61.90625 -11.226562 58.910156 -4.8125 52.921875 C 1.601562 46.929688 6.628906 38.914062 10.265625 28.875 C 14.546875 16.675781 18.929688 2.132812 23.421875 -14.75 L 53.5625 -133.125 L 24.703125 -133.125 L 27.578125 -143.0625 L 32.390625 -143.0625 C 38.597656 -143.0625 43.519531 -143.863281 47.15625 -145.46875 C 50.789062 -147.070312 53.726562 -149.367188 55.96875 -152.359375 C 58.21875 -155.359375 60.734375 -159.632812 63.515625 -165.1875 Z M 63.515625 -165.1875 "/></g></g></g></g><g fill="#1b1b1b" fill-opacity="1"><g transform="translate(119.680749, 230.225248)"><g><path d="M 76.34375 -210.75 C 80.832031 -210.75 84.679688 -209.144531 87.890625 -205.9375 C 91.097656 -202.726562 92.703125 -198.984375 92.703125 -194.703125 C 92.703125 -190.210938 91.097656 -186.363281 87.890625 -183.15625 C 84.679688 -179.945312 80.832031 -178.34375 76.34375 -178.34375 C 72.0625 -178.34375 68.316406 -179.945312 65.109375 -183.15625 C 61.898438 -186.363281 60.296875 -190.210938 60.296875 -194.703125 C 60.296875 -198.984375 61.898438 -202.726562 65.109375 -205.9375 C 68.316406 -209.144531 72.0625 -210.75 76.34375 -210.75 Z M 44.90625 -28.546875 C 43.195312 -22.984375 42.34375 -19.132812 42.34375 -17 C 42.34375 -13.582031 44.160156 -11.875 47.796875 -11.875 C 50.359375 -11.875 53.9375 -13.847656 58.53125 -17.796875 C 63.132812 -21.753906 67.894531 -27.582031 72.8125 -35.28125 L 77.953125 -32.078125 C 70.890625 -21.171875 62.972656 -12.457031 54.203125 -5.9375 C 45.441406 0.582031 37.425781 3.84375 30.15625 3.84375 C 25.875 3.84375 22.609375 2.457031 20.359375 -0.3125 C 18.117188 -3.09375 17 -6.835938 17 -11.546875 C 17 -14.972656 17.640625 -18.929688 18.921875 -23.421875 L 44.59375 -111.625 C 46.082031 -116.96875 46.828125 -120.710938 46.828125 -122.859375 C 46.828125 -125.628906 45.863281 -128.082031 43.9375 -130.21875 C 42.019531 -132.363281 39.132812 -133.4375 35.28125 -133.4375 C 33.78125 -133.4375 29.71875 -132.898438 23.09375 -131.828125 L 24.703125 -137.28125 L 73.453125 -146.59375 L 78.90625 -146.59375 Z M 44.90625 -28.546875 "/></g></g></g><g fill="#1b1b1b" fill-opacity="1"><g transform="translate(184.150525, 230.225248)"><g><path d="M 87.25 -182.1875 L 93.34375 -182.1875 L 82.109375 -143.0625 L 104.5625 -143.0625 L 102 -133.125 L 79.234375 -133.125 L 50.6875 -33.359375 C 48.113281 -24.804688 46.828125 -19.03125 46.828125 -16.03125 C 46.828125 -12.1875 48.429688 -10.265625 51.640625 -10.265625 C 54.421875 -10.265625 57.84375 -11.8125 61.90625 -14.90625 C 65.96875 -18.007812 69.765625 -21.484375 73.296875 -25.328125 C 76.828125 -29.179688 78.695312 -31.535156 78.90625 -32.390625 L 85 -32.390625 C 76.664062 -19.140625 68.328125 -9.785156 59.984375 -4.328125 C 51.640625 1.117188 44.046875 3.84375 37.203125 3.84375 C 33.566406 3.84375 30.253906 2.457031 27.265625 -0.3125 C 24.273438 -3.09375 22.78125 -7.375 22.78125 -13.15625 C 22.78125 -17 24.0625 -23.734375 26.625 -33.359375 L 55.171875 -133.125 L 31.109375 -133.125 L 33.359375 -140.171875 C 45.972656 -142.304688 56.289062 -147.171875 64.3125 -154.765625 C 72.332031 -162.359375 79.976562 -171.5 87.25 -182.1875 Z M 87.25 -182.1875 "/></g></g></g></g></g></svg>